<svg id="Layer_1" enable-background="new 0 0 800 800" viewBox="0 0 800 800" xmlns="http://www.w3.org/2000/svg"><g><path d="m663.3 76.9c-5.4-13.7-24.6-13.7-30 0l-14.3 36.5c-1.6 4.2-4.9 7.5-9.1 9.1l-36.4 14.4c-13.6 5.4-13.6 24.7 0 30.1l36.4 14.4c4.2 1.6 7.4 4.9 9.1 9.1l14.3 36.5c5.4 13.7 24.6 13.7 30 0l14.3-36.5c1.6-4.2 4.9-7.5 9.1-9.1l36.4-14.4c13.6-5.4 13.6-24.7 0-30.1l-36.4-14.4c-4.2-1.6-7.4-4.9-9.1-9.1z" fill="#1c274c"/><path d="m534.4 271c-5.4-13.7-24.6-13.7-30 0l-5.2 13.3c-1.6 4.2-4.9 7.5-9.1 9.1l-13.3 5.3c-13.6 5.4-13.6 24.7 0 30.1l13.3 5.2c4.2 1.6 7.4 4.9 9.1 9.1l5.2 13.3c5.4 13.7 24.6 13.7 30 0l5.2-13.3c1.6-4.2 4.9-7.5 9.1-9.1l13.3-5.2c13.6-5.4 13.6-24.7 0-30.1l-13.3-5.3c-4.2-1.6-7.4-4.9-9.1-9.1z" fill="#1c274c"/><path d="m400 733.3c184.1 0 333.3-149.2 333.3-333.3 0-15.4-23.1-18-31.1-4.8-37.9 62.8-106.8 104.8-185.5 104.8-119.7 0-216.7-97-216.7-216.7 0-78.7 42-147.6 104.8-185.6 13.2-8 10.6-31.1-4.8-31.1-184.1.1-333.3 149.3-333.3 333.4s149.2 333.3 333.3 333.3z" fill="#8e93a6"/></g></svg>