<svg id="Capa_1" enable-background="new 0 0 512 512" height="512" viewBox="0 0 512 512" width="512" xmlns="http://www.w3.org/2000/svg"><g><path d="m143.509 455.777h47.054v30h-47.054z" transform="matrix(.383 -.924 .924 .383 -331.827 444.943)"/><path d="m321.085 26.458h47.563v30h-47.563z" transform="matrix(.383 -.924 .924 .383 174.591 344.209)"/><path d="m329.963 447.25h30v47.054h-30z" transform="matrix(.924 -.383 .383 .924 -153.899 167.846)"/><path d="m152.134 17.677h30v47.563h-30z" transform="matrix(.924 -.383 .383 .924 -3.143 67.114)"/><path d="m455.777 321.436h30v47.054h-30z" transform="matrix(.383 -.924 .924 .383 -28.086 647.894)"/><path d="m26.458 143.352h30v47.563h-30z" transform="matrix(.383 -.924 .924 .383 -128.819 141.478)"/><path d="m447.25 152.036h47.054v30h-47.054z" transform="matrix(.924 -.383 .383 .924 -28.087 192.872)"/><path d="m17.677 329.866h47.563v30h-47.563z" transform="matrix(.924 -.383 .383 .924 -128.817 42.116)"/><path d="m399.073 134.14 66.033-66.033-21.213-21.213-66.033 66.033c7.62 6.499 14.714 13.594 21.213 21.213z"/><path d="m134.14 112.927-66.534-66.533-21.212 21.212 66.533 66.533c6.499-7.618 13.594-14.713 21.213-21.212z"/><path d="m271 68.568v-68.568h-30v68.568c4.95-.393 9.951-.599 15-.599s10.05.207 15 .599z"/><ellipse cx="256" cy="256" rx="158.03" ry="158.03" transform="matrix(.707 -.707 .707 .707 -106.039 256)"/><path d="m67.97 256c0-5.049.206-10.05.599-15h-68.569v30h68.569c-.393-4.95-.599-9.951-.599-15z"/><path d="m443.432 241c.393 4.95.599 9.951.599 15s-.206 10.05-.599 15h68.568v-30z"/><path d="m377.86 399.073 66.033 66.033 21.213-21.213-66.033-66.033c-6.499 7.619-13.594 14.714-21.213 21.213z"/><path d="m241 443.431v68.569h30v-68.569c-4.95.392-9.951.599-15 .599s-10.05-.206-15-.599z"/><path d="m112.927 377.86-66.533 66.533 21.213 21.213 66.533-66.533c-7.619-6.499-14.714-13.594-21.213-21.213z"/></g></svg>